<?xml version="1.0" standalone="no"?>
<!DOCTYPE svg PUBLIC "-//W3C//DTD SVG 20010904//EN"
 "http://www.w3.org/TR/2001/REC-SVG-20010904/DTD/svg10.dtd">
<svg version="1.0" xmlns="http://www.w3.org/2000/svg"
 width="500.000000pt" height="344.000000pt" viewBox="-35 -50 444.000000 444.000000">

<g transform="translate(0.000000,344.000000) scale(0.100000,-0.100000)" stroke="none">
<path d="M130 3392 c-19 -11 -48 -36 -65 -56 l-30 -38 0 -1577 0 -1578 28 -36
c16 -21 46 -46 67 -57 38 -19 60 -20 830 -20 l791 0 24 25 25 24 0 1266 0
1265 725 0 724 0 3 -491 3 -491 24 -19 c32 -26 82 -25 109 4 l22 23 0 818 c0
796 -1 818 -20 856 -11 21 -36 51 -57 67 l-36 28 -1566 3 c-1512 2 -1567 2
-1601 -16z m2093 -375 c42 -128 77 -236 77 -240 0 -4 -475 -7 -1055 -7 l-1055
0 0 233 c0 129 3 237 7 240 3 4 443 7 977 7 l971 0 78 -233z m540 0 c42 -128
77 -236 77 -240 0 -4 -82 -7 -183 -7 l-182 0 -78 233 c-42 128 -77 236 -77
240 0 4 82 7 183 7 l182 0 78 -233z m485 -9 l2 -238 -117 0 -118 0 -78 233
c-42 128 -77 236 -77 240 0 4 87 6 193 5 l192 -3 3 -237z m-1608 -963 l0 -565
-159 0 -158 0 -6 79 c-8 104 -36 181 -92 253 l-45 58 29 45 c40 64 54 123 49
208 -16 252 -287 400 -511 279 -178 -96 -236 -332 -123 -499 l25 -36 -34 -38
c-67 -74 -105 -178 -105 -286 l0 -63 -160 0 -160 0 0 565 0 565 725 0 725 0 0
-565z m-616 202 c66 -51 94 -147 65 -224 -43 -114 -210 -149 -302 -64 -41 38
-57 73 -57 130 0 61 13 97 48 135 41 43 79 57 148 53 49 -2 69 -8 98 -30z
m-107 -497 c34 0 74 5 89 10 24 9 32 7 63 -18 51 -41 79 -103 87 -189 l7 -73
-248 0 -248 0 5 73 c6 84 30 139 82 185 31 27 39 30 68 21 18 -5 61 -9 95 -9z
m723 -995 l0 -565 -159 0 -158 0 -6 79 c-8 104 -36 181 -92 253 l-45 58 29 45
c40 64 54 123 49 208 -16 252 -287 400 -511 279 -178 -96 -236 -332 -123 -499
l25 -36 -34 -38 c-67 -74 -105 -178 -105 -287 l0 -63 -157 3 -158 3 -3 563 -2
562 725 0 725 0 0 -565z m-616 202 c66 -51 94 -147 65 -224 -43 -114 -210
-149 -302 -64 -41 38 -57 73 -57 130 0 61 13 97 48 135 41 43 79 57 148 53 49
-2 69 -8 98 -30z m-107 -497 c34 0 74 5 89 10 24 9 32 7 63 -18 51 -41 79
-103 87 -189 l7 -73 -248 0 -248 0 5 73 c6 84 30 139 82 185 31 27 39 30 68
21 18 -5 61 -9 95 -9z"/>
<path d="M375 3065 c-16 -15 -25 -36 -25 -55 0 -19 9 -40 25 -55 23 -24 31
-25 135 -25 104 0 112 1 135 25 16 15 25 36 25 55 0 19 -9 40 -25 55 -23 24
-31 25 -135 25 -104 0 -112 -1 -135 -25z"/>
<path d="M856 3059 c-14 -17 -26 -39 -26 -49 0 -10 12 -32 26 -49 l26 -31 108
0 c100 0 111 2 136 23 37 33 37 81 0 114 -25 21 -36 23 -136 23 l-108 0 -26
-31z"/>
<path d="M1345 3065 c-16 -15 -25 -36 -25 -55 0 -19 9 -40 25 -55 23 -24 31
-25 133 -25 126 0 149 10 158 72 5 30 2 41 -19 62 -25 25 -31 26 -137 26 -104
0 -112 -1 -135 -25z"/>
<path d="M2023 2443 c-29 -6 -63 -49 -63 -79 0 -12 11 -36 24 -51 l24 -28 517
0 517 0 24 28 c30 36 30 68 0 104 l-24 28 -499 1 c-274 1 -508 0 -520 -3z"/>
<path d="M1991 2103 c-11 -10 -24 -32 -27 -50 -5 -27 -1 -37 24 -63 l31 -31
327 3 326 3 19 24 c26 32 25 82 -4 109 -23 22 -28 22 -349 22 -296 0 -328 -2
-347 -17z"/>
<path d="M1999 1787 c-44 -34 -47 -89 -7 -127 21 -20 33 -20 535 -20 l514 0
24 25 c16 15 25 36 25 55 0 19 -9 40 -25 55 l-24 25 -513 0 c-388 -1 -517 -4
-529 -13z"/>
<path d="M2096 1468 c-59 -16 -112 -75 -126 -140 -8 -38 -10 -212 -8 -608 3
-534 4 -556 23 -589 11 -19 37 -48 58 -65 l39 -31 581 -3 c387 -2 594 0 618 7
51 15 88 48 110 95 17 38 19 78 19 618 0 384 -4 586 -11 605 -13 35 -54 79
-94 101 -27 15 -90 17 -600 19 -371 1 -584 -2 -609 -9z m649 -209 c76 -14 126
-40 185 -95 120 -112 142 -304 50 -441 l-28 -41 30 -29 c16 -15 46 -61 66
-102 32 -65 37 -84 40 -166 4 -90 3 -95 -21 -119 -34 -34 -79 -34 -112 -1 -20
20 -25 34 -25 78 0 68 -21 138 -55 182 -39 52 -56 58 -125 44 -46 -9 -74 -9
-127 1 l-67 13 -43 -47 c-48 -54 -63 -95 -63 -179 0 -51 -4 -62 -29 -88 -38
-38 -74 -38 -112 0 -24 25 -29 38 -29 80 0 111 42 224 108 293 l35 37 -26 40
c-70 105 -77 248 -17 360 52 97 142 163 247 181 27 4 51 8 54 9 3 0 32 -4 64
-10z"/>
<path d="M2626 1090 c-63 -19 -126 -109 -126 -180 0 -41 29 -108 56 -132 31
-27 90 -48 136 -48 101 0 178 77 178 179 0 134 -115 219 -244 181z"/>
</g>
</svg>
