<svg xmlns="http://www.w3.org/2000/svg" xmlns:xlink="http://www.w3.org/1999/xlink">
  <!--viddens-->
  <symbol id="videns" version="1.1" viewBox="0 0 512 383" xmlns="http://www.w3.org/2000/svg">
    <path
      d="M62.363 2.027 C 47.521 4.698,33.484 12.298,21.918 23.927 C 15.010 30.871,12.440 34.343,8.750 41.715 C 2.322 54.556,0.659 62.871,1.231 79.311 C 1.864 97.488,4.038 103.146,20.840 130.346 C 25.649 138.131,31.100 146.975,32.953 150.000 C 36.594 155.945,43.218 166.708,58.187 191.000 C 76.102 220.072,78.293 223.639,113.169 280.500 C 126.663 302.500,140.763 325.450,144.503 331.500 C 148.242 337.550,153.507 346.100,156.202 350.500 C 158.897 354.900,163.788 362.775,167.071 368.000 C 170.353 373.225,173.524 378.738,174.117 380.250 L 175.196 383.000 256.123 383.000 L 337.050 383.000 337.981 380.551 C 338.493 379.204,340.448 375.717,342.325 372.801 C 344.203 369.886,350.589 359.625,356.516 350.000 C 362.443 340.375,371.214 326.200,376.006 318.500 C 385.405 303.400,395.030 287.814,403.793 273.500 C 406.823 268.550,410.742 262.250,412.501 259.500 C 414.259 256.750,418.167 250.450,421.184 245.500 C 432.796 226.448,438.509 217.181,443.993 208.500 C 449.445 199.870,459.379 183.856,472.527 162.500 C 493.302 128.757,502.737 113.642,507.082 107.147 L 512.000 99.794 512.000 50.397 L 512.000 1.000 454.611 1.000 C 401.403 1.000,397.072 1.128,395.169 2.750 C 394.040 3.712,390.334 9.450,386.933 15.500 C 381.029 26.003,373.076 39.935,364.954 54.000 C 359.371 63.669,342.692 92.953,330.495 114.500 C 324.580 124.950,316.122 139.800,311.701 147.500 C 307.279 155.200,302.014 164.425,300.001 168.000 C 295.119 176.672,274.776 211.992,267.459 224.500 C 259.316 238.421,257.009 243.012,256.945 245.419 C 256.913 246.655,256.076 245.491,254.884 242.551 C 253.780 239.830,251.391 235.105,249.574 232.051 C 247.757 228.998,243.433 221.550,239.965 215.500 C 236.497 209.450,231.487 200.838,228.830 196.361 C 226.174 191.885,224.000 187.955,224.000 187.629 C 224.000 187.302,222.135 183.990,219.855 180.268 C 217.575 176.545,214.374 171.025,212.741 168.000 C 211.109 164.975,207.956 159.350,205.736 155.500 C 197.409 141.057,193.957 135.006,183.488 116.500 C 177.577 106.050,168.012 89.175,162.233 79.000 C 156.454 68.825,149.470 56.450,146.712 51.500 C 143.955 46.550,140.304 40.043,138.599 37.041 C 136.895 34.039,131.635 27.715,126.911 22.989 C 119.883 15.958,116.610 13.541,108.911 9.695 C 103.735 7.110,96.800 4.290,93.500 3.430 C 86.192 1.525,69.367 0.766,62.363 2.027 "
      fill-rule="evenodd" />
  </symbol>
  <!--school-->
  <symbol id="school" version="1.0" viewBox="0 0 195.000000 220" xmlns="http://www.w3.org/2000/svg">
    <g transform="translate(0,220) scale(0.100000,-0.100000)">
      <path d="M925 2173 c-165 -85 -389 -121 -564 -92 -47 7 -66 7 -71 -2 -15 -23
            -32 -196 -32 -319 1 -158 22 -291 72 -441 75 -228 176 -388 354 -564 111 -111
            259 -225 291 -225 32 0 180 114 291 225 178 176 279 336 354 564 50 150 71
            280 71 441 1 124 -16 295 -31 319 -5 9 -24 9 -71 2 -175 -29 -398 7 -564 91
            l-50 26 -50 -25z m225 -81 c36 -11 92 -26 125 -33 67 -14 270 -18 327 -6 l36
            8 13 -73 c21 -116 16 -363 -10 -484 -59 -284 -177 -508 -373 -710 -54 -55
            -133 -126 -175 -156 -127 -91 -109 -88 -199 -27 -43 29 -125 97 -181 152 -212
            206 -342 444 -404 741 -26 121 -31 368 -10 484 l13 73 36 -8 c57 -12 260 -8
            327 6 80 16 200 57 255 85 l45 24 55 -28 c30 -15 84 -37 120 -48z" />
      <path d="M961 2091 c-7 -12 -19 -21 -28 -21 -13 0 -14 -2 -2 -17 8 -9 13 -25
            11 -35 -3 -17 -1 -18 16 -7 17 10 24 10 37 -1 15 -12 17 -12 13 6 -1 12 3 28
            11 37 11 15 11 17 -2 17 -9 0 -22 9 -31 21 l-14 21 -11 -21z" />
      <path d="M681 2012 c-6 -12 -21 -22 -34 -22 -21 -1 -21 -1 -3 -15 12 -9 17
            -22 13 -35 -6 -22 3 -26 21 -8 9 9 15 9 24 0 19 -19 30 -14 23 9 -5 14 -1 25
            12 34 17 14 17 14 -5 15 -14 0 -26 8 -31 22 l-8 22 -12 -22z" />
      <path d="M1248 2012 c-4 -14 -14 -22 -29 -22 -21 0 -21 -1 -5 -19 9 -10 14
            -25 10 -35 -7 -19 7 -21 24 -4 9 9 15 9 24 0 18 -18 27 -14 21 8 -4 13 1 26
            13 35 18 14 18 14 -2 15 -12 0 -28 10 -36 22 l-15 22 -5 -22z" />
      <path d="M378 2002 c-4 -14 -14 -22 -29 -22 -21 0 -21 -1 -5 -19 10 -11 14
            -25 10 -36 -6 -15 -4 -16 15 -5 17 9 26 9 37 -1 11 -9 14 -7 14 13 0 13 5 29
            12 36 9 9 8 12 -4 12 -8 0 -22 10 -30 22 l-15 22 -5 -22z" />
      <path d="M1551 2002 c-6 -12 -19 -22 -28 -22 -13 0 -14 -3 -5 -12 7 -7 12 -23
            12 -36 0 -20 3 -22 14 -13 11 10 20 10 36 1 20 -11 21 -10 15 10 -5 15 -1 26
        12 35 17 14 17 14 -5 15 -14 0 -26 8 -31 22 l-8 22 -12 -22z" />
      <path d="M884 1929 c-106 -37 -208 -58 -323 -66 l-93 -6 5 -146 c9 -279 96
            -504 283 -733 59 -72 199 -198 219 -198 6 0 45 29 87 64 183 157 322 382 385
            624 19 74 26 132 30 243 l6 146 -94 6 c-115 8 -216 28 -330 67 -48 17 -88 30
            -90 29 -2 -1 -40 -14 -85 -30z m175 -28 c103 -35 207 -57 319 -66 l82 -7 0
            -47 c0 -77 -20 -221 -41 -306 -58 -227 -203 -463 -371 -605 l-71 -59 -31 21
            c-62 44 -184 177 -244 266 -131 196 -192 380 -208 623 l-7 107 84 7 c101 8
            275 45 344 73 28 12 52 21 54 21 2 1 42 -12 90 -28z" />
      <path d="M874 1869 c-91 -32 -232 -59 -305 -59 l-49 0 0 -69 c0 -116 27 -249
            78 -388 22 -61 30 -73 49 -73 l23 0 0 225 c0 218 -1 225 -20 225 -13 0 -20 7
            -20 20 0 18 7 20 85 20 78 0 85 -2 85 -20 0 -13 -7 -20 -20 -20 -11 0 -20 -2
            -20 -5 0 -18 82 -165 90 -160 5 3 35 55 66 115 l58 109 24 -42 c13 -23 39 -72
            58 -109 18 -36 38 -69 43 -73 8 -5 91 141 91 160 0 3 -9 5 -20 5 -13 0 -20 7
            -20 20 0 18 7 20 85 20 78 0 85 -2 85 -20 0 -13 -7 -20 -20 -20 -19 0 -20 -7
            -20 -225 l0 -225 23 0 c19 0 27 12 50 73 48 128 76 273 77 395 l0 62 -49 0
            c-73 0 -215 27 -314 60 -48 17 -94 29 -100 29 -7 -1 -48 -15 -93 -30z" />
      <path d="M869 1493 c-57 -108 -105 -199 -107 -203 -2 -4 6 -10 18 -13 12 -3
            20 -13 20 -26 0 -18 -7 -20 -76 -23 l-75 -3 62 -95 c37 -56 103 -135 161 -193
            l98 -99 39 31 c67 53 170 171 233 266 l59 90 -75 3 c-69 3 -76 5 -76 23 0 12
            8 23 20 26 11 3 20 7 20 8 0 3 -211 399 -214 402 -1 2 -49 -86 -107 -194z m61
            -97 l45 -84 45 84 c25 46 48 84 52 84 4 0 10 -11 14 -25 4 -18 -8 -51 -51
            -130 -31 -58 -58 -105 -60 -105 -2 0 -29 47 -60 105 -43 79 -55 112 -51 130 4
            14 10 25 14 25 4 0 27 -38 52 -84z" />
      <path d="M720 1500 l0 -185 50 92 51 93 -25 47 c-13 27 -36 68 -50 93 l-26 45
            0 -185z" />
      <path d="M1177 1590 l-48 -89 50 -93 51 -93 0 183 c0 100 -1 182 -3 182 -1 0
            -24 -40 -50 -90z" />
      <path d="M380 1625 c0 -8 -9 -15 -20 -15 -22 0 -27 -15 -9 -26 6 -3 9 -14 6
            -23 -3 -13 4 -16 33 -16 29 0 36 3 33 16 -3 9 0 20 6 23 18 11 13 26 -9 26
            -11 0 -20 7 -20 15 0 8 -4 15 -10 15 -5 0 -10 -7 -10 -15z" />
      <path d="M1550 1625 c0 -8 -9 -15 -20 -15 -22 0 -27 -15 -9 -26 6 -3 9 -14 6
            -23 -3 -13 4 -16 33 -16 29 0 36 3 33 16 -3 9 0 20 6 23 18 11 13 26 -9 26
            -11 0 -20 7 -20 15 0 8 -4 15 -10 15 -5 0 -10 -7 -10 -15z" />
      <path d="M487 1266 c-4 -9 -16 -16 -27 -16 -24 0 -27 -15 -4 -24 9 -4 13 -13
            10 -24 -5 -15 0 -18 29 -18 27 0 35 4 35 17 0 10 5 21 10 24 16 10 12 25 -6
            25 -9 0 -22 7 -29 16 -11 16 -12 16 -18 0z" />
      <path d="M1445 1268 c-4 -10 -16 -18 -26 -18 -20 0 -26 -15 -9 -25 6 -3 10
            -14 10 -24 0 -13 8 -17 35 -17 29 0 34 3 29 18 -3 11 1 20 10 24 22 9 20 24
            -4 24 -10 0 -23 8 -29 18 -9 16 -10 16 -16 0z" />
      <path d="M686 953 c-4 -14 -15 -23 -27 -23 -22 0 -26 -15 -5 -23 9 -4 12 -14
            9 -26 -6 -22 11 -29 23 -10 4 8 9 8 17 0 18 -18 29 -13 22 9 -4 13 -1 22 9 26
            22 8 20 24 -2 24 -11 0 -23 10 -29 23 l-10 22 -7 -22z" />
      <path d="M1246 953 c-4 -14 -15 -23 -27 -23 -23 0 -25 -15 -3 -24 10 -4 13
            -13 9 -26 -7 -21 9 -28 21 -9 4 8 9 8 17 0 18 -18 30 -13 24 10 -3 12 0 22 9
            26 20 8 17 23 -4 23 -11 0 -23 10 -29 23 l-10 22 -7 -22z" />
      <path d="M966 713 c-4 -14 -15 -23 -27 -23 -22 0 -26 -15 -5 -23 9 -4 12 -14
            9 -26 -6 -22 11 -29 23 -10 4 8 9 8 17 0 18 -18 30 -13 24 10 -3 12 0 22 9 26
            20 8 17 23 -4 23 -11 0 -23 10 -29 23 l-10 22 -7 -22z" />
      <path d="M197 2110 c-68 -54 -85 -166 -41 -266 29 -65 34 -125 14 -174 -13
            -31 -12 -33 29 -73 l42 -42 -8 30 c-14 55 -7 334 11 433 9 51 14 97 11 102
            -10 15 -30 12 -58 -10z" />
      <path d="M1695 2120 c-3 -5 2 -51 11 -102 18 -99 25 -378 11 -433 l-8 -30 42
            42 c41 40 42 42 29 73 -20 49 -15 109 14 174 32 73 34 142 5 203 -30 62 -86
            102 -104 73z" />
      <path d="M33 1865 c-26 -18 -39 -75 -24 -103 24 -46 64 -69 54 -32 -7 24 4 70
            16 70 25 0 41 -34 41 -86 0 -62 13 -70 30 -18 21 62 -7 150 -55 172 -33 15
            -36 15 -62 -3z" />
      <path d="M1849 1865 c-28 -15 -59 -78 -59 -119 0 -31 20 -86 31 -86 5 0 9 24
            9 54 0 52 16 86 41 86 12 0 23 -46 16 -70 -10 -37 30 -14 54 32 15 28 2 85
            -24 103 -26 18 -34 18 -68 0z" />
      <path d="M33 1624 c6 -60 48 -111 120 -147 56 -27 78 -50 92 -95 7 -23 5 -22
            -52 9 -32 18 -78 45 -101 61 l-44 28 7 -32 c18 -86 68 -135 163 -163 39 -12
            56 -23 72 -51 12 -19 20 -37 18 -40 -5 -4 -112 38 -171 68 l-39 19 7 -23 c27
            -88 103 -148 186 -148 22 0 41 -10 65 -34 19 -19 34 -38 34 -44 0 -8 -129 23
            -193 47 -21 8 -24 7 -20 -8 7 -29 62 -90 94 -107 16 -8 60 -18 97 -21 56 -5
            72 -11 96 -35 15 -16 27 -31 24 -33 -5 -5 -197 23 -209 31 -20 12 -7 -18 23
            -52 44 -49 83 -64 173 -64 70 0 77 -2 107 -31 l33 -30 -120 4 -120 5 48 -44
            c56 -50 111 -63 189 -45 42 9 55 8 83 -5 73 -34 64 -41 -60 -49 l-116 -7 22
            -24 c50 -53 143 -69 217 -38 46 19 84 12 141 -25 l44 -29 -54 -27 c-29 -15
            -81 -38 -114 -50 -53 -21 -57 -24 -35 -30 24 -6 151 40 207 76 18 11 35 6 128
            -35 79 -35 115 -46 134 -41 23 6 20 9 -34 30 -33 12 -85 35 -114 50 l-54 27
            44 29 c57 37 95 44 141 25 74 -31 167 -15 217 38 l22 24 -116 7 c-124 8 -133
            15 -60 49 28 13 41 14 83 5 72 -17 131 -5 181 37 22 20 41 39 41 43 0 4 -51 6
            -112 4 l-113 -4 33 30 c30 29 37 31 107 31 90 0 129 15 173 64 30 34 43 64 23
            52 -12 -8 -204 -36 -209 -31 -3 2 9 17 24 33 24 24 40 30 96 35 37 3 81 13 97
            21 32 17 87 78 94 107 4 15 1 16 -20 8 -64 -24 -193 -55 -193 -47 0 6 15 25
            34 44 24 24 43 34 65 34 83 0 159 60 186 148 l7 23 -39 -19 c-59 -30 -166 -72
            -171 -68 -2 3 6 21 18 40 16 28 33 39 72 51 95 28 145 77 163 163 l7 32 -44
            -28 c-23 -16 -69 -43 -101 -61 -57 -31 -59 -32 -52 -9 14 45 36 68 92 95 72
            36 114 87 120 147 6 48 -4 59 -27 31 -7 -8 -41 -35 -75 -60 -85 -60 -101 -83
            -131 -184 -96 -323 -241 -558 -464 -749 -70 -60 -229 -172 -245 -172 -16 0
            -175 112 -245 172 -223 191 -368 426 -464 749 -30 101 -46 124 -131 184 -34
            25 -68 52 -75 60 -23 28 -33 17 -27 -31z" />
      <path d="M176 707 c-4 -31 -10 -57 -12 -57 -3 0 -27 12 -55 26 -28 14 -53 23
            -56 21 -7 -8 84 -156 139 -225 l50 -64 -32 -33 c-20 -21 -30 -40 -27 -49 13
            -32 176 -149 282 -201 339 -168 713 -167 1039 3 85 45 239 159 260 194 8 14 4
            24 -22 51 l-33 34 63 84 c60 80 136 209 123 209 -3 0 -28 -12 -56 -26 -28 -14
            -52 -24 -54 -22 -2 2 -7 28 -12 58 l-8 55 -29 -50 c-47 -81 -112 -160 -186
            -227 -38 -35 -70 -66 -70 -70 0 -17 34 -6 83 27 28 19 57 35 64 35 27 0 11
            -37 -29 -71 -272 -225 -624 -287 -952 -168 -141 51 -336 179 -336 220 0 27 19
            24 77 -16 47 -31 83 -44 83 -30 0 3 -42 47 -93 98 -80 78 -120 129 -183 234
            -9 15 -12 8 -18 -40z m144 -342 c20 -24 6 -40 -33 -40 -21 0 -37 1 -37 3 0 2
            8 14 18 27 20 28 35 31 52 10z m1364 -10 c18 -28 21 -44 5 -28 -16 16 -41 -10
            -33 -34 4 -12 -2 -9 -20 10 -31 34 -33 51 -6 42 16 -5 20 -2 20 14 0 28 14 26
            34 -4z m-1304 -40 c26 -31 -13 -82 -44 -56 -19 16 -21 57 -3 64 22 9 34 7 47
            -8z m1205 -12 c-20 -15 -20 -15 3 -8 13 4 22 2 22 -4 0 -6 -4 -11 -10 -11 -5
            0 -10 -5 -10 -10 0 -7 6 -7 20 0 27 14 26 -2 -1 -19 -18 -11 -23 -11 -31 1
            -28 41 -28 47 -6 62 28 20 40 10 13 -11z m-1135 -39 c0 -14 -2 -15 -17 -3 -15
            13 -15 12 -4 -9 20 -38 -12 -59 -40 -26 -12 15 -11 16 11 9 22 -7 23 -6 12 8
            -8 9 -11 21 -7 27 10 16 45 12 45 -6z m1104 -6 c8 -13 8 -23 0 -35 -18 -29
            -42 -27 -58 6 -15 28 -15 31 2 40 23 14 42 10 56 -11z m-1076 -33 c-15 -33 0
            -46 19 -17 23 33 36 27 18 -8 -17 -33 -36 -38 -55 -15 -10 12 -10 21 -2 40 7
            14 16 25 22 25 6 0 5 -9 -2 -25z m996 -1 c9 -8 16 -19 16 -24 0 -13 -30 -40
            -44 -40 -17 0 -36 21 -36 40 0 19 19 40 36 40 7 0 20 -7 28 -16z m-898 -20
            c18 -14 18 -15 -6 -9 -23 6 -23 5 -7 -8 24 -20 21 -30 -5 -22 -21 6 -22 5 -5
            -8 25 -21 21 -28 -8 -15 -28 13 -30 17 -13 53 13 29 18 30 44 9z m815 -8 c-9
            -11 -9 -20 -2 -35 7 -13 8 -22 1 -26 -5 -3 -12 6 -16 20 -3 14 -13 25 -23 25
            -14 1 -13 3 3 15 27 20 53 20 37 1z m-750 -16 c20 -11 27 -40 9 -40 -5 0 -10
            -7 -10 -15 0 -8 -4 -15 -10 -15 -5 0 -10 7 -10 16 0 14 -3 14 -15 4 -12 -10
            -15 -9 -15 4 0 19 17 56 26 56 3 0 14 -5 25 -10z m673 -15 c-19 -14 -19 -14 2
            -15 26 0 34 -8 27 -26 -6 -16 -43 -19 -43 -3 0 5 4 8 9 4 5 -3 12 -1 16 5 3 5
            -3 10 -14 10 -11 0 -23 5 -26 10 -10 15 4 30 28 30 20 0 20 0 1 -15z m-627
            -25 c-8 -38 19 -42 29 -4 4 15 10 22 16 16 5 -5 5 -20 -2 -36 -7 -20 -16 -27
            -33 -24 -22 3 -34 35 -23 64 10 26 19 15 13 -16z m583 -5 c4 -40 0 -46 -27
            -43 -19 2 -29 10 -34 31 -9 34 4 35 19 1 16 -34 33 -21 25 19 -4 22 -2 29 5
            22 6 -5 11 -19 12 -30z m-487 -7 c13 -19 16 -20 16 -5 1 9 6 17 12 17 7 0 8
            -12 4 -32 -10 -45 -13 -47 -35 -18 -16 20 -20 22 -20 8 0 -10 -5 -18 -11 -18
            -6 0 -8 7 -5 16 3 9 6 24 6 35 0 25 14 24 33 -3z m401 13 c3 -5 -3 -11 -14
            -14 -30 -8 -25 -35 8 -39 24 -4 25 -5 8 -13 -40 -18 -75 36 -40 62 21 15 31
            16 38 4z m-294 -18 c2 -2 -1 -7 -7 -11 -7 -4 -16 -19 -22 -32 -9 -24 -10 -24
            -10 8 -1 17 -5 32 -11 32 -5 0 -10 5 -10 10 0 9 48 4 60 -7z m75 -10 c6 -17 7
            -17 16 0 17 29 29 19 29 -23 0 -22 -4 -40 -10 -40 -5 0 -10 10 -10 23 0 16 -3
            18 -9 8 -7 -11 -10 -11 -17 0 -6 10 -10 7 -15 -11 -6 -20 -7 -17 -8 18 -1 43
            11 56 24 25z m110 7 c-3 -5 -14 -10 -23 -11 -11 -1 -8 -4 8 -9 17 -5 19 -8 8
            -9 -26 -1 -22 -19 5 -24 16 -3 13 -5 -10 -6 -31 -1 -33 1 -33 34 0 31 3 35 26
            35 14 0 23 -4 19 -10z" />
      <path d="M290 350 c0 -5 5 -10 10 -10 6 0 10 5 10 10 0 6 -4 10 -10 10 -5 0
            -10 -4 -10 -10z" />
      <path d="M335 300 c-8 -14 3 -30 21 -30 8 0 14 9 14 20 0 21 -24 28 -35 10z" />
      <path d="M1512 243 c5 -25 28 -28 28 -4 0 12 -6 21 -16 21 -9 0 -14 -7 -12
            -17z" />
      <path d="M1430 200 c0 -15 5 -20 18 -18 9 2 17 10 17 18 0 8 -8 16 -17 18 -13
            2 -18 -3 -18 -18z" />
      <path d="M620 160 c0 -5 5 -10 10 -10 6 0 10 5 10 10 0 6 -4 10 -10 10 -5 0
            -10 -4 -10 -10z" />
    </g>
  </symbol>

</svg>
